<?xml version="1.0" encoding="UTF-8"?>
<svg id="Camada_2" data-name="Camada 2" xmlns="http://www.w3.org/2000/svg" xmlns:xlink="http://www.w3.org/1999/xlink" viewBox="0 0 2937.87 1594.42">
  <defs>
    <style>
      .cls-1 {
        fill: url(#Gradiente_sem_nome_7-3);
      }

      .cls-2 {
        fill: url(#Gradiente_sem_nome_7-12);
      }

      .cls-3 {
        fill: url(#Gradiente_sem_nome_7-5);
      }

      .cls-4 {
        fill: url(#Gradiente_sem_nome_7-14);
      }

      .cls-5 {
        fill: url(#Gradiente_sem_nome_7-6);
      }

      .cls-6 {
        fill: url(#Gradiente_sem_nome_7-8);
      }

      .cls-7 {
        fill: url(#Gradiente_sem_nome_7-15);
      }

      .cls-8 {
        fill: url(#Gradiente_sem_nome_7-16);
      }

      .cls-9 {
        fill: url(#Gradiente_sem_nome_7-7);
      }

      .cls-10 {
        fill: url(#Gradiente_sem_nome_7-4);
      }

      .cls-11 {
        fill: url(#Gradiente_sem_nome_7);
      }

      .cls-12 {
        fill: url(#Gradiente_sem_nome_7-10);
      }

      .cls-13 {
        fill: url(#Gradiente_sem_nome_7-9);
      }

      .cls-14 {
        fill: #dbb778;
      }

      .cls-15 {
        fill: #b3b3b3;
      }

      .cls-16 {
        fill: url(#Gradiente_sem_nome_7-11);
      }

      .cls-17 {
        fill: url(#Gradiente_sem_nome_7-13);
      }

      .cls-18 {
        fill: url(#Gradiente_sem_nome_7-2);
      }
    </style>
    <linearGradient id="Gradiente_sem_nome_7" data-name="Gradiente sem nome 7" x1="1296.58" y1="905.6" x2="2511.31" y2="1619.19" gradientUnits="userSpaceOnUse">
      <stop offset="0" stop-color="#bf7b32"/>
      <stop offset=".48" stop-color="#d8b354"/>
      <stop offset="1" stop-color="#340000"/>
    </linearGradient>
    <linearGradient id="Gradiente_sem_nome_7-2" data-name="Gradiente sem nome 7" x1="849.37" y1="1666.87" x2="2064.1" y2="2380.46" xlink:href="#Gradiente_sem_nome_7"/>
    <linearGradient id="Gradiente_sem_nome_7-3" data-name="Gradiente sem nome 7" x1="1468.98" y1="27.38" x2="1485.32" y2="1138.62" xlink:href="#Gradiente_sem_nome_7"/>
    <linearGradient id="Gradiente_sem_nome_7-4" data-name="Gradiente sem nome 7" x1="1469.68" y1="27.36" x2="1486.02" y2="1138.59" xlink:href="#Gradiente_sem_nome_7"/>
    <linearGradient id="Gradiente_sem_nome_7-5" data-name="Gradiente sem nome 7" x1="1645.44" y1="24.79" x2="1661.78" y2="1136.02" gradientTransform="translate(27.82 -263.08) rotate(9.22)" xlink:href="#Gradiente_sem_nome_7"/>
    <linearGradient id="Gradiente_sem_nome_7-6" data-name="Gradiente sem nome 7" x1="1292.01" y1="29.98" x2="1308.35" y2="1141.22" xlink:href="#Gradiente_sem_nome_7"/>
    <linearGradient id="Gradiente_sem_nome_7-7" data-name="Gradiente sem nome 7" x1="2571.19" y1="11.17" x2="2587.53" y2="1122.41" xlink:href="#Gradiente_sem_nome_7"/>
    <linearGradient id="Gradiente_sem_nome_7-8" data-name="Gradiente sem nome 7" x1="1457.37" y1="27.55" x2="1473.71" y2="1138.79" xlink:href="#Gradiente_sem_nome_7"/>
    <linearGradient id="Gradiente_sem_nome_7-9" data-name="Gradiente sem nome 7" x1="1461.24" y1="27.5" x2="1477.58" y2="1138.73" xlink:href="#Gradiente_sem_nome_7"/>
    <linearGradient id="Gradiente_sem_nome_7-10" data-name="Gradiente sem nome 7" x1="1461.24" y1="27.5" x2="1477.58" y2="1138.73" xlink:href="#Gradiente_sem_nome_7"/>
    <linearGradient id="Gradiente_sem_nome_7-11" data-name="Gradiente sem nome 7" x1="1409.45" y1="28.26" x2="1425.79" y2="1139.49" xlink:href="#Gradiente_sem_nome_7"/>
    <linearGradient id="Gradiente_sem_nome_7-12" data-name="Gradiente sem nome 7" x1="1508.57" y1="26.8" x2="1524.92" y2="1138.03" xlink:href="#Gradiente_sem_nome_7"/>
    <linearGradient id="Gradiente_sem_nome_7-13" data-name="Gradiente sem nome 7" x1="1499.58" y1="26.93" x2="1515.92" y2="1138.17" xlink:href="#Gradiente_sem_nome_7"/>
    <linearGradient id="Gradiente_sem_nome_7-14" data-name="Gradiente sem nome 7" x1="1416.68" y1="28.15" x2="1433.02" y2="1139.39" xlink:href="#Gradiente_sem_nome_7"/>
    <linearGradient id="Gradiente_sem_nome_7-15" data-name="Gradiente sem nome 7" x1="1493.74" y1="27.02" x2="1510.08" y2="1138.25" xlink:href="#Gradiente_sem_nome_7"/>
    <linearGradient id="Gradiente_sem_nome_7-16" data-name="Gradiente sem nome 7" x1="1421.12" y1="28.09" x2="1437.46" y2="1139.32" xlink:href="#Gradiente_sem_nome_7"/>
  </defs>
  <g id="Camada_1-2" data-name="Camada 1">
    <g>
      <g>
        <g>
          <path class="cls-14" d="m1616.55,1569.42c1.55-9.3,2.96-18.63,4.7-27.89.91-4.84.35-8.65-3.63-12.23-7.26-6.53-14.04-13.6-21.03-20.45-.8-.78-2.07-1.45-1.7-2.73.42-1.5,1.95-1.53,3.24-1.67,10.53-1.15,20.84-4.04,31.51-4.1,3.1-.02,4.64-1.8,5.88-4.31,4.7-9.48,9.47-18.92,14.28-28.35.62-1.22.77-3.22,2.61-3.12,1.69.09,1.98,1.98,2.62,3.23,4.41,8.72,8.95,17.38,13.06,26.24,1.98,4.26,5,6.29,9.45,6.37,10.02.19,19.54,3.77,29.52,4.17,1.13.05,2.53.27,2.93,1.43.46,1.33-1.04,1.83-1.82,2.58-7.16,6.9-14.26,13.86-21.52,20.65-3.68,3.45-4.78,7.06-3.57,12.18,2.13,9,3.4,18.21,5,27.34.24,1.37,1.06,3.01-.55,4.01-1.51.94-2.8-.3-4.05-.95-7.23-3.77-14.78-7.07-21.56-11.53-6.81-4.48-12.56-4.14-19.25.08-7.01,4.43-14.58,7.98-21.93,11.87-3.04,1.6-4.75,1.04-4.19-2.82Z"/>
          <path class="cls-14" d="m1375.91,1589.28c2.16-12.95,4.12-25.94,6.55-38.84,1.27-6.74.48-12.05-5.06-17.03-10.12-9.1-19.56-18.95-29.29-28.48-1.11-1.09-2.88-2.02-2.37-3.81.59-2.08,2.71-2.13,4.51-2.33,14.67-1.61,29.02-5.63,43.88-5.72,4.32-.03,6.46-2.5,8.19-6,6.55-13.2,13.19-26.35,19.88-39.48.86-1.69,1.07-4.48,3.64-4.34,2.35.13,2.76,2.76,3.64,4.5,6.15,12.14,12.47,24.2,18.19,36.54,2.75,5.94,6.96,8.76,13.16,8.87,13.95.26,27.21,5.25,41.11,5.81,1.57.06,3.53.38,4.08,1.99.64,1.86-1.45,2.55-2.53,3.6-9.97,9.61-19.86,19.3-29.97,28.76-5.13,4.8-6.66,9.83-4.97,16.96,2.97,12.54,4.74,25.36,6.96,38.07.33,1.91,1.48,4.2-.77,5.59-2.1,1.3-3.9-.41-5.64-1.33-10.07-5.25-20.58-9.85-30.02-16.06-9.48-6.24-17.5-5.77-26.81.11-9.76,6.17-20.3,11.12-30.54,16.53-4.23,2.23-6.61,1.45-5.83-3.93Z"/>
          <path class="cls-14" d="m1161.89,1569.42c1.55-9.3,2.96-18.63,4.7-27.89.91-4.84.35-8.65-3.63-12.23-7.26-6.53-14.04-13.6-21.03-20.45-.8-.78-2.07-1.45-1.7-2.73.42-1.5,1.95-1.53,3.24-1.67,10.53-1.15,20.84-4.04,31.51-4.1,3.1-.02,4.64-1.8,5.88-4.31,4.7-9.48,9.47-18.92,14.28-28.35.62-1.22.77-3.22,2.61-3.12,1.69.09,1.98,1.98,2.62,3.23,4.41,8.72,8.95,17.38,13.06,26.24,1.98,4.26,5,6.29,9.45,6.37,10.02.19,19.54,3.77,29.52,4.17,1.13.05,2.53.27,2.93,1.43.46,1.33-1.04,1.83-1.82,2.58-7.16,6.9-14.26,13.86-21.52,20.65-3.68,3.45-4.78,7.06-3.57,12.18,2.13,9,3.4,18.21,5,27.34.24,1.37,1.06,3.01-.55,4.01-1.51.94-2.8-.3-4.05-.95-7.23-3.77-14.78-7.07-21.56-11.53-6.81-4.48-12.56-4.14-19.25.08-7.01,4.43-14.58,7.98-21.93,11.87-3.04,1.6-4.75,1.04-4.19-2.82Z"/>
          <path class="cls-14" d="m1004.04,1544.22c.78-4.67,1.48-9.35,2.36-13.99.46-2.43.17-4.34-1.82-6.14-3.65-3.28-7.05-6.83-10.55-10.26-.4-.39-1.04-.73-.85-1.37.21-.75.98-.77,1.62-.84,5.28-.58,10.46-2.03,15.81-2.06,1.56,0,2.33-.9,2.95-2.16,2.36-4.75,4.75-9.49,7.16-14.22.31-.61.39-1.62,1.31-1.56.85.05,1,.99,1.31,1.62,2.21,4.37,4.49,8.72,6.55,13.16.99,2.14,2.51,3.16,4.74,3.2,5.03.09,9.8,1.89,14.81,2.09.57.02,1.27.14,1.47.72.23.67-.52.92-.91,1.3-3.59,3.46-7.15,6.95-10.8,10.36-1.85,1.73-2.4,3.54-1.79,6.11,1.07,4.52,1.71,9.14,2.51,13.72.12.69.53,1.51-.28,2.01-.76.47-1.4-.15-2.03-.48-3.63-1.89-7.42-3.55-10.82-5.79-3.42-2.25-6.3-2.08-9.66.04-3.52,2.22-7.32,4.01-11,5.95-1.52.8-2.38.52-2.1-1.41Z"/>
          <path class="cls-14" d="m1811.54,1544.22c.78-4.67,1.48-9.35,2.36-13.99.46-2.43.17-4.34-1.82-6.14-3.65-3.28-7.05-6.83-10.55-10.26-.4-.39-1.04-.73-.85-1.37.21-.75.98-.77,1.62-.84,5.28-.58,10.46-2.03,15.81-2.06,1.56,0,2.33-.9,2.95-2.16,2.36-4.75,4.75-9.49,7.16-14.22.31-.61.39-1.62,1.31-1.56.85.05,1,.99,1.31,1.62,2.21,4.37,4.49,8.72,6.55,13.16.99,2.14,2.51,3.16,4.74,3.2,5.03.09,9.8,1.89,14.81,2.09.57.02,1.27.14,1.47.72.23.67-.52.92-.91,1.3-3.59,3.46-7.15,6.95-10.8,10.36-1.85,1.73-2.4,3.54-1.79,6.11,1.07,4.52,1.71,9.14,2.51,13.72.12.69.53,1.51-.28,2.01-.76.47-1.4-.15-2.03-.48-3.63-1.89-7.42-3.55-10.82-5.79-3.42-2.25-6.3-2.08-9.66.04-3.52,2.22-7.32,4.01-11,5.95-1.52.8-2.38.52-2.1-1.41Z"/>
        </g>
        <g>
          <path class="cls-11" d="m2028.03,1518.84c207.39,6.74,417.53,6.68,624.92,0-207.39-6.68-417.54-6.74-624.92,0Z"/>
          <path class="cls-18" d="m284.92,1518.84c207.39,6.74,417.53,6.68,624.92,0-207.39-6.68-417.54-6.74-624.92,0Z"/>
        </g>
      </g>
      <g>
        <g>
          <g>
            <path class="cls-15" d="m179.36,1018.4l-153.17-.04.19,11.61h9.15c13.3,0,24.54,9.93,24.54,21.68v247.54c-.28,13.34-11.36,24.2-24.7,24.2h-9.15l-.19,11.65h153.33c97.12,0,162.38-63.57,162.38-158.19s-65.25-158.46-162.38-158.46Zm0,295.98h-83.27v-275.47h83.27c72.97,0,121.99,55.44,121.99,137.95s-47.88,137.52-121.99,137.52Z"/>
            <path class="cls-15" d="m468.68,1323.37c-13.37,0-24.45-10.88-24.7-24.18v-245.22c.38-13.46,11.23-24.01,24.69-24.01h9.15l.19-11.65h-104.05l.19,11.65h9.15c13.51,0,24.36,10.58,24.69,24v245.16c-.25,13.37-11.33,24.25-24.7,24.25h-9.15l-.19,11.65h104.06l-.19-11.65h-9.15Z"/>
            <path class="cls-15" d="m739.53,1029.93h7.5c5.07,0,9.87,2.37,12.54,6.19,2.97,4.24,3.27,9.97.92,16.43l-92.76,223.37-89.29-223.25c-2.41-6.62-2.11-12.36.85-16.6,2.65-3.78,7.42-6.13,12.45-6.13h7.5v-11.65h-106.77v11.7h7.15c11.65,0,27.15,6.73,35.69,25.56l125.18,285.68h9.96v-3.62c0-6.51,9.84-30.46,16.06-44.06l106.28-238.27c8.6-18.64,23.94-25.29,35.44-25.29h7.5v-11.69h-96.2s0,11.65,0,11.65Z"/>
            <path class="cls-15" d="m945.23,1323.37c-13.37,0-24.45-10.88-24.7-24.18v-245.22c.38-13.46,11.23-24.01,24.69-24.01h9.15l.19-11.65h-104.05l.19,11.65h9.15c13.51,0,24.36,10.58,24.69,24v245.16c-.25,13.37-11.33,24.25-24.7,24.25h-9.15l-.19,11.65h104.06l-.19-11.65h-9.15Z"/>
            <path class="cls-15" d="m1234.49,1029.99h11.72c12.81,0,23.43,10.43,23.67,23.18v210.09l-235.56-251.53h-10.17l.68,4.19c.04.25,4.02,25.14,4.02,54.65v229.59c-.25,12.81-10.87,23.23-23.67,23.23h-11.72l-.18,11.65h98.4l-.18-11.65h-11.72c-12.87,0-23.26-10.08-23.66-22.83v-210.96l234.84,250.49,1.07,1.14h9.75l-.6-4.13c-.04-.28-3.99-27.98-3.99-55.88v-228.28c.41-12.86,10.8-22.93,23.66-22.93h11.72l.17-11.65h-98.44s.18,11.65.18,11.65Z"/>
            <path class="cls-15" d="m1765.54,1412.31c-74.86,16.06-123.15-73.1-150.49-150.72l-53.94-152.78c-13.75-38.94-32.57-92.27-74.52-110.77-23.9-10.54-53.12-8.64-86.86,5.64l-2.93,1.24,3.15,11.28,3.66-1.33c37.37-13.52,66.09-5.58,87.75,24.29l-108.64,260.84c-8.82,17.22-23.5,23.36-34.31,23.36h-7.59v11.65h96.21v-11.61h-7.5c-5.04,0-9.83-2.38-12.51-6.21-3-4.29-3.31-10.06-.92-16.62l29.72-76.52h116.19l16.3,48.13c25.94,76.55,62.41,127.89,105.48,148.47,14.45,6.91,29.4,10.36,44.71,10.36,12.91,0,26.08-2.46,39.43-7.37l2.58-.95-.95-11.25-4.02.86Zm-210.48-208.74h-101.27s53.24-136.76,53.24-136.76c5.76,12.6,10.46,25.82,14.73,38.42l33.3,98.34Z"/>
          </g>
          <g>
            <path class="cls-15" d="m2081.35,1298.83l-34.7-286.54h-9.58l-118.31,261.53-120.05-259.57-.97-2.1h-9.63l-33.62,286.66c-2.2,16.96-15.97,24.55-28.64,24.55h-10.65v11.65h92.84v-11.4h-10.49c-3.54,0-7.14-1.73-9.87-4.72-2.71-2.98-4.09-6.7-3.77-10.22l18.19-202.54,108.35,235.07h9.58l.48-3.06c2.74-17.58,14.76-43.92,14.89-44.21l87.24-193.97,18.8,208.7c.32,3.52-1.06,7.24-3.77,10.22-2.73,2.99-6.32,4.71-9.86,4.72h-10.5v11.4h103.33v-11.65h-10.65c-12.66,0-26.42-7.58-28.63-24.53Z"/>
            <path class="cls-15" d="m2351.36,1258.64c-13.92,34.34-31.35,55.63-75.12,55.63h-59.79v-125.22h71.41c9.79.38,17.45,8.36,17.45,18.16v10.08l11.55.14v-77.29l-11.55.16v10.08c0,9.83-8,17.98-17.77,18.16h-71.09v-129.44h86.4c11.92.78,21.25,10.73,21.25,22.7v11.44l11.69.18v-64.94l-5.02,2.12c-7.94,3.35-33.18,7.58-51.29,7.76h-132.86l.19,11.63h9.15c12.61,0,23.13,9.4,24.55,21.9v247.26c-.25,13.37-11.33,24.25-24.7,24.25h-9.15l-.19,11.65h189.47l28.34-78.65h-12l-.91,2.26Z"/>
            <path class="cls-15" d="m2543.69,1198.39l-86.87-80.42c-15.02-13.91-16.64-31.28-16.64-38.11,0-26.92,21.82-47.22,50.75-47.22,14.04,0,26.43,4.67,34.88,13.15,7.39,7.42,11.28,17.36,11.24,28.74v3.63s11.49,0,11.49,0v-61.47h-20.74c-13.16-2.84-27.45-4.53-38.3-4.53-24.48,0-45.36,8.48-60.38,24.53-13.3,14.21-20.92,33.81-20.92,53.8,0,21.93,9.16,42.87,25.11,57.43l84.68,78.64c10.74,9.97,16.19,22.94,16.19,38.55,0,30.93-22.95,53.8-55.82,55.63-17.75,1-33.54-4.77-44.51-16.21-12.02-12.53-17.5-31.12-15.43-52.34l.39-3.97h-10.46l-.83,2.45c-7.19,21.17-8.49,50-5.2,63.64l.23.96.68.71c19.28,19.94,57.75,25.26,77.44,25.26,51.67,0,86.39-34.67,86.39-86.28,0-23.53-7.64-42.03-23.36-56.54Z"/>
            <path class="cls-15" d="m2904.53,1323.37c-11.52,0-26.9-6.74-35.52-25.66l-118.15-283.32-.93-2.22h-10.01v3.62c0,6.51-9.84,30.46-16.08,44.13l-100.21,237.78c-8.61,18.94-23.95,25.68-35.43,25.68h-7.59v11.65h96.21v-11.61h-7.5c-5.02,0-9.8-2.37-12.49-6.17-2.99-4.24-3.34-9.94-1.05-16.38l28.71-73.26h114.1l27.38,72.91c2.42,6.63,2.11,12.39-.89,16.68-2.68,3.83-7.48,6.21-12.51,6.21h-7.5v11.61h106.77v-11.65h-7.31Zm-113.64-116.26h-98.37l50.23-128.17,48.13,128.17Z"/>
          </g>
        </g>
        <g>
          <path class="cls-1" d="m1343.61,252.23c38.78-15.31,81.1-23.77,125.33-23.77s87.18,8.54,126.27,24.16l45.55-190.82s-46,77.17-82.09,77.17c25.48,25.47,12.15,67.33-27.78,67.33-46.46,0-46.62-71.1-11.62-71.1-34.47,0-49.78-98.56-49.78-98.56,0,0-15.32,98.56-49.78,98.56,35.01,0,34.85,71.1-11.63,71.1-40,0-53.24-41.86-27.77-67.33-36.17,0-82.1-77.17-82.1-77.17l45.4,190.43Z"/>
          <path class="cls-10" d="m1469.48,27.36c7.55,0,13.67-6.12,13.67-13.68s-6.12-13.68-13.67-13.68-13.68,6.13-13.68,13.68,6.12,13.68,13.68,13.68Z"/>
          <circle class="cls-3" cx="1645.68" cy="41.04" r="13.68" transform="translate(14.68 264.14) rotate(-9.22)"/>
          <path class="cls-5" d="m1292.17,54.72c7.56,0,13.68-6.13,13.68-13.68s-6.12-13.68-13.68-13.68-13.67,6.13-13.67,13.68,6.13,13.68,13.67,13.68Z"/>
          <path class="cls-9" d="m2580.78,661.04c-.03.33-.06.66-.06.98,0-.33.03-.65.06-.98Z"/>
          <path class="cls-6" d="m2884.32,754.51c-14.43,0-45.93,11.54-45.93,43.87,0,13.81,10.35,38.98,37.03,38.98,9.14,0,17.78-5.9,17.78-15.25,0-7.43-5.52-15.25-13.7-15.25-9.45,0-18.42,8.1-13.83,20.87-10.85-5.41-14.05-17.43-14.05-29.35,0-14.29,13.45-31.16,34.1-31.16,25.27,0,37.29,21.92,37.29,46.93s-15.62,68.29-75.25,68.29c-41.74,0-205.34-.48-326.52-.48-67.36,0-114.96-17.3-145.79-39.94,21.6-18.87,34.7-41.54,34.7-66.92,0-36.17-24.05-53.75-45.21-53.75s-49.04,12.66-49.04,48.57c0,29.1,12.5,52.46,31.94,70.94-34.7,20.52-87.35,35.5-157.92,35.5-24.27,0-58.06-7.69-89.28-24.69,54.33-46.58,97.91-123.52,97.91-230.83,0-11.88-.51-23.41-1.51-34.6,40.78,13.56,81.98,49.56,81.98,104.16,0,77.74-35.41,91.53-41.51,91.53.89-.89.81-7.86.81-10.1s-1.93-18.85-21.33-18.85c-21.96,0-22.69,22.11-22.69,23.5s2.33,20.72,22.11,20.72c37.08,0,75.44-37.88,75.44-108.57,0-58.65-42.41-109.22-97.69-125.45-7.66-49.52-24.98-91.56-48.22-125.74,155.85,130.56,308.59,370.62,490.88,370.62,57.54,0,108.04-40.71,108.04-110.6,0-45.37-38.23-90.33-89.45-90.33-31.87,0-66.47,18.23-73.36,45.16-.35,1.15-.64,2.32-.82,3.53-.09.58-.11,1.18-.18,1.76-.06.7-.21,1.36-.21,2.08,0,.1.02.2.02.3-.01.37-.05.73-.09,1.1.03-.32.08-.64.11-.96.23,14.04,11.65,25.36,25.77,25.36s25.8-11.55,25.8-25.8-11.56-25.81-25.8-25.81c-2.28,0-4.46.39-6.55.94,12.56-8.15,31.07-14.19,55.3-14.19,43.03,0,73.09,41.12,73.09,77.91,0,22.44-11.37,87.85-92,87.85-221.85,0-440.91-457.1-668.21-457.1v.28c-3.25-.18-6.47-.28-9.69-.28-39.39,0-71.38,8.25-96.69,21.52,0-.08.02-.15.02-.22-.31.3-.81.55-1.17.82-1.86,1-3.81,1.93-5.61,2.99-24.72,9.38-96.58,5.55-127.24-25.11,0,51.52,90.74,55.65,90.74,55.65,0,0,.15-.03.2-.04-19.82,23.62-29.51,51.92-29.51,79.2,0,64.44,54.65,95.54,98.57,95.54,33.36,0,87.53-19.88,87.53-85.92,0-38.42-29.72-57.23-41.13-61.53-2.74-1.22-5.75-1.94-8.93-1.94-12.15,0-21.99,9.84-21.99,21.98s9.83,21.98,21.99,21.98,21.97-9.84,21.97-21.98c0-.35-.08-.69-.1-1.04,8.53,9.55,15.66,23.6,15.66,42.52,0,49.05-52.9,68.58-74.72,68.58s-77.24-16.65-77.24-77.24,57.7-110.01,146.18-110.01c77.9,0,181.86,66.94,205.62,202.98-2.06-.1-4.1-.31-6.19-.31-76.95,0-165.76,44.88-165.76,162.22,0,47.38,22.95,95.3,61.7,129.89-25.97,16.71-53.82,25.93-80.73,25.93-25.41,0-62.75-10.7-96.02-31.43,33.3-30.63,55.76-73.29,55.76-124.59,0-141.48-156.14-129.14-156.14,3.58,0,49.05,23.72,94.86,60.44,128.25-64.66,39.26-151.29,32.59-193.21-6.36l-9.92-5.76c-47.06,28.45-103.07,43.67-161.97,44.01h-1.45c-56.8,0-112.62-15.24-161.42-44.08l-9.23,5.67c-41.71,39.38-129.1,45.92-194.02,6.51,36.72-33.4,60.44-79.21,60.44-128.25,0-132.73-156.13-145.07-156.13-3.58,0,51.3,22.45,93.96,55.75,124.59-33.27,20.74-70.62,31.43-96.01,31.43-26.92,0-54.76-9.22-80.73-25.93,38.73-34.59,61.68-82.5,61.68-129.89,0-117.34-88.81-162.22-165.75-162.22-2.09,0-4.14.22-6.2.31,23.76-136.04,127.71-202.98,205.61-202.98,88.48,0,146.19,47.5,146.19,110.01s-55.42,77.24-77.24,77.24-74.72-19.53-74.72-68.58c0-18.92,7.13-32.97,15.67-42.52-.01.35-.1.69-.1,1.04,0,12.14,9.84,21.98,21.99,21.98s21.98-9.84,21.98-21.98-9.84-21.98-21.98-21.98c-3.19,0-6.21.71-8.95,1.94-11.4,4.29-41.11,23.11-41.11,61.53,0,66.04,54.17,85.92,87.52,85.92,43.92,0,98.57-31.1,98.57-95.54,0-27.28-9.69-55.58-29.52-79.2.05.01.19.04.19.04,0,0,90.75-4.14,90.75-55.65-30.67,30.66-102.53,34.49-127.24,25.11-1.79-1.05-3.75-1.99-5.62-2.99-.35-.28-.87-.53-1.16-.82,0,.07.02.14.02.22-25.3-13.27-57.29-21.52-96.69-21.52-3.21,0-6.45.1-9.69.28v-.28c-227.29,0-446.35,457.1-668.21,457.1-80.63,0-92.01-65.41-92.01-87.85,0-36.79,30.05-77.91,73.1-77.91,24.23,0,42.73,6.05,55.3,14.19-2.11-.56-4.28-.94-6.55-.94-14.25,0-25.81,11.55-25.81,25.81s11.55,25.8,25.81,25.8,25.52-11.32,25.76-25.36c.07.65.18,1.31.18,1.94,0-.71-.12-1.38-.16-2.08,0-.1.02-.2.02-.3,0-.71-.15-1.38-.21-2.08-.07-.58-.08-1.18-.18-1.76-.18-1.21-.46-2.38-.81-3.53-6.91-26.92-41.51-45.16-73.37-45.16-51.22,0-89.45,44.96-89.45,90.33,0,69.89,50.5,110.6,108.04,110.6,182.3,0,335.03-240.05,490.89-370.62-23.26,34.18-40.58,76.22-48.24,125.74-55.28,16.23-97.69,66.8-97.69,125.45,0,70.69,38.35,108.57,75.44,108.57,19.78,0,22.11-19.34,22.11-20.72s-.74-23.5-22.7-23.5c-19.39,0-21.31,16.61-21.31,18.85s-.09,9.21.79,10.1c-6.09,0-41.51-13.79-41.51-91.53,0-54.61,41.21-90.6,81.99-104.16-1,11.18-1.52,22.72-1.52,34.6,0,107.31,43.59,184.25,97.91,230.83-31.21,17-64.99,24.69-89.26,24.69-70.59,0-123.23-14.98-157.93-35.5,19.45-18.48,31.95-41.83,31.95-70.94,0-35.9-27.89-48.57-49.05-48.57s-45.2,17.58-45.2,53.75c0,25.38,13.1,48.06,34.7,66.92-30.83,22.64-78.43,39.94-145.79,39.94-121.18,0-284.79.48-326.52.48-59.63,0-77.01-43.28-77.01-68.29s13.77-46.93,39.06-46.93c20.65,0,34.09,15.67,34.09,31.16,0,11.92-3.19,23.94-14.06,29.35,4.61-12.78-4.37-20.87-13.82-20.87-8.18,0-13.7,7.82-13.7,15.25,0,9.35,8.65,15.25,17.79,15.25,26.69,0,37.03-25.16,37.03-38.98,0-33.53-31.5-44.83-45.93-44.83-41.99,0-56.1,34.63-56.1,60.28,0,54.82,45.62,86.88,93.22,86.88h316.81c47.58,0,121.05-13.45,168.46-48.12,42.98,30.14,108.96,48.12,173.94,48.12,41.91,0,79.35-12.09,110.09-31.72,35.64,24.09,73.73,36.21,106.13,36.21,44.41,0,86.99-15.73,121.09-41.39,63.99,41.93,151.49,46.82,207.04-2.2,49.92,36.05,111.01,55.9,172.42,55.9h1.66c63.12-.36,124.35-20.18,172.9-55.8,55.56,48.91,142.97,43.99,206.93,2.09,34.09,25.66,76.67,41.39,121.1,41.39,32.39,0,70.49-12.12,106.12-36.21,30.73,19.63,68.18,31.72,110.09,31.72,64.98,0,130.95-17.98,173.94-48.12,47.42,34.68,120.89,48.12,168.46,48.12h310.7c47.6,0,96.76-32.05,96.76-86.88,0-25.65-11.54-59.31-53.55-59.31Zm-2306.24,76.61c-23.37-17.62-35.32-37.87-35.32-56.03,0-34.72,21.64-47.5,33.19-47.5s34.15,10.09,34.15,41.84c0,18.17-10.09,41.2-32.01,61.7Zm288.46,2.87c-53.18-44.83-93.91-122.52-93.91-216.77,0-12.8.72-25.08,1.95-36.93,1.16-.05,2.36-.18,3.5-.18,40.39,0,144.27,28.21,144.27,139.77,0,51.7-24.12,88.94-55.81,114.1Zm213.7-.42c-29.15-26.16-48.85-63.81-48.85-113.9,0-103.77,107.69-99.86,107.69,6.45,0,46.34-25.77,82.37-58.84,107.45Zm779.95,0c-33.06-25.08-58.84-61.11-58.84-107.45,0-106.3,107.7-110.22,107.7-6.45,0,50.09-19.7,87.73-48.86,113.9Zm213.69.42c-31.7-25.16-55.8-62.4-55.8-114.1,0-111.56,103.87-139.77,144.27-139.77,1.12,0,2.33.13,3.49.18,1.23,11.85,1.94,24.13,1.94,36.93,0,94.25-40.72,171.94-93.91,216.77Zm288.46-2.87c-21.92-20.49-32-43.52-32-61.7,0-31.74,22.6-41.84,34.14-41.84s33.2,12.78,33.2,47.5c0,18.17-11.97,38.41-35.34,56.03Z"/>
          <path class="cls-13" d="m1468.93,835.3c156.99,0,284.69-127.71,284.69-284.69s-127.7-284.69-284.69-284.69-284.69,127.71-284.69,284.69,127.71,284.69,284.69,284.69Zm0-546.3c144.26,0,261.61,117.35,261.61,261.6s-117.35,261.61-261.61,261.61-261.6-117.36-261.6-261.61,117.35-261.6,261.6-261.6Z"/>
          <path class="cls-12" d="m1382.38,782.48c10.58,3.96,21.5,7.22,32.71,9.71,11.58,2.58,23.45,4.35,35.57,5.24,6.04.44,12.13.68,18.27.68s11.93-.23,17.81-.65c9.87-.71,19.57-2,29.09-3.83,11.55-2.22,22.82-5.25,33.74-9.02,97-33.52,166.87-125.75,166.87-234,0-136.47-111.03-247.5-247.51-247.5s-247.5,111.03-247.5,247.5c0,106.04,67.04,196.7,160.95,231.87Zm68.96-253.25c-11.14-56.81-7.73-112.66,10.99-167.51-12.21,55.27-16.25,111.08-10.99,167.51Zm17.59-210.73c127.99,0,232.12,104.13,232.12,232.11,0,98.79-62.05,183.35-149.21,216.8,1.67-12.53,3.4-25.05,5.34-37.54,7.05-45.5,15.54-90.7,27.95-135.09.85-3.03,2.01-5.86,4.5-7.84,3.24-2.57,6.57-5.03,9.96-7.39,14.45-10.07,25.51-22.79,31.88-39.44,6.98-18.25,8.2-37.32,8.59-56.54.27-10.01-.66-19.95-1.99-29.82-1.86-13.76-4.87-27.27-13.11-38.87-8.31-11.7-20.4-14.09-32.69-6.71-7.47,4.49-13.6,10.52-18.9,17.34-17.04,21.92-27.84,46.91-34.84,73.54-5.31,20.2-4.35,40.14,5.37,59.14,3.51,6.85,7.9,13.15,12.32,19.41,2.7,3.83,3.69,7.87,3.19,12.57-1.4,13.12-3.49,26.14-5.68,39.14-8.42,49.86-20.42,98.88-33.44,147.68-11.24,2.55-22.78,4.28-34.56,5.13-.26-4.22-.52-8.43-.74-12.65-1.73-32.15-3.24-64.31-4.11-96.48-.61-22.68-.33-45.38-.35-68.07-.04-42.04-.01-84.08-.01-126.12,0-43.1.01-86.21-.03-129.31,0-2.9-.17-5.84-.63-8.7-.95-5.91-5.23-7.45-9.92-3.65-1.06.86-1.99,1.93-2.79,3.04-11.84,16.25-19.19,34.53-23.57,53.99-5.83,25.89-7.1,52.14-5.81,78.64,1.02,21.02,2.5,42.01,6.46,62.62,6.47,33.71,9.66,67.66,10.31,101.89.92,48.02-.11,96.01-2.84,143.96-.02.27-.04.55-.05.82-13.99-1.03-27.63-3.31-40.83-6.72-5.22-20.63-10.37-41.28-15-62.05-9.31-41.8-17.33-83.78-22.26-126.36-1.59-13.68-.67-25.68,9.96-35.86,4.42-4.23,6.63-9.96,5.24-16.82-7.96-39.24-15.45-78.58-25.36-117.39-1.33-5.2-2.73-10.4-4.94-15.32-.55-1.23-.92-3.05-2.57-2.82-2,.28-1.71,2.3-1.7,3.75.02,3.22,0,6.46.41,9.64,2.69,20.85,6.58,41.5,10.33,62.18,1.45,8,2.83,16.02,2.27,24.22-.27,3.99-1.94,6.74-6.09,7.49-4.13.74-7.21-.68-9.06-4.55-1.47-3.08-2.27-6.35-2.91-9.67-2.79-14.46-5.46-28.94-8.34-43.38-2.7-13.54-5.5-27.07-10.27-40.08-.65-1.77-1.23-4.5-3.7-3.82-2.24.62-1.71,3.25-1.63,5.22.01.31.1.61.13.91,1.52,18.53,5.27,36.72,8.2,55.04,1.98,12.41,5.35,24.59,6.02,37.2.21,4.03-.96,7.34-5.37,8.49-4.91,1.27-8.52-.27-10.58-4.95-1.35-3.07-2.37-6.35-3.03-9.63-4.39-21.8-8.64-43.63-12.93-65.46-1.18-6.03-2.56-12.01-4.57-17.82-.61-1.75-.86-4.6-3.42-4.15-2.18.39-1.58,2.98-1.69,4.75-.1,1.53-.02,3.07-.02,4.6-.07,0-.13.01-.2.02.53,5.8.91,11.62,1.62,17.4,4.08,32.89,9.32,65.6,15.23,98.2,3.9,21.47.23,19.24,20.74,32.3,6.61,4.21,10.48,9.7,12.45,17.33,8.04,31.23,14.27,62.81,19.74,94.57,4.95,28.74,8.93,57.61,12.64,86.52-84.08-34.93-143.35-117.89-143.35-214.46,0-127.98,104.12-232.11,232.11-232.11Zm77.54,217.18c20.9,27.1,44.65,31.24,71.75,13.04-9.19,16.81-28.64,26.41-44.68,22.48-15.06-3.68-26.54-22.16-27.07-35.52Zm-177.44-19.46c-.08.45-.09,2.21-.74,3.7-1.94,4.48-7.16,4.95-9.89.92-.84-1.24-1.25-2.78-1.82-4.19-1.23-3.03-1.69-5.47,3.09-4.7,1.28.21,2.74-.23,4.03-.66,5.36-1.8,5.35-1.84,5.33,4.93Zm-28.65,8.52c-.88,2.39-2.68,3.75-5.06,4.1-2.41.36-4.03-1.21-5.14-3.12-.83-1.43-1.42-3.03-1.9-4.63-.77-2.54-1.51-5.27,2.76-3.85,2.22.03,4.33-.07,5.97-1.14,3.24-2.12,3.86-.39,4.13,2.35.21,2.15,0,4.24-.75,6.29Z"/>
          <path class="cls-16" d="m1391.67,638.82c12.28,7.83,19.33,19.86,25.71,32.38,2.42,4.74,4.53,9.64,7.21,15.36.69-1.5,1.04-2.01,1.16-2.58.29-1.35.47-2.72.7-4.08,2.83-16.54,8.29-32.08,18.34-45.68,2.22-3.01,2.18-4.13-1.13-6.16-7.59-4.67-12.91-10.96-11.27-20.79.45-2.72-1.53-3.37-3.31-4.25-6.95-3.4-11.61-8.84-14.48-15.96-.58-1.43-.63-3.26-2.21-4.24-.38.41-.74.61-.75.83-.55,9.89-4.46,18.03-12.39,24.13-1.56,1.2-1.1,2.72-.47,4.17,2.13,4.9,1.16,9.61-.86,14.25-1.49,3.42-3.73,6.34-6.32,8.99-1.22,1.26-1.97,2.31.07,3.61Zm31.38,33.88c-3.57-16.21-5.67-32.55-6.66-49.04,2.99,16.26,5.58,32.58,6.66,49.04Z"/>
          <path class="cls-2" d="m1509.87,679.96c.35,1.91.33,3.94,1.95,6.03,3.24-6.68,6.06-12.96,9.28-19.03,5.49-10.35,11.77-20.21,21.69-26.93,3.28-2.22,2.99-3.58.64-6.28-5.44-6.26-8.99-13.24-5.75-21.87.77-2.06.09-3.44-1.56-4.75-7.12-5.69-10.74-13.19-11.24-22.26-.04-.72-.01-1.57-.98-1.85-.76.03-.99.59-1.18,1.17-2.85,8.89-8.13,15.68-16.85,19.51-1.38.61-2.33,1.59-2.08,3.2,1.59,10.3-3.46,16.97-11.93,21.7-2.55,1.42-2.66,2.79-.93,5.04,10.58,13.68,15.87,29.55,18.92,46.32Zm9.99-56.42c-.98,16.77-3.06,33.4-6.65,49.84,1.04-16.76,3.89-33.3,6.65-49.84Z"/>
          <path class="cls-17" d="m1509.41,692.11c-9.34.09-16.19,7.01-16.22,16.39-.03,9.4,7.25,16.89,16.41,16.88,9.23,0,16.47-7.42,16.42-16.81-.06-9.64-7.03-16.55-16.61-16.46Z"/>
          <path class="cls-4" d="m1426.66,692.12c-9.51.02-16.43,7.07-16.38,16.67.05,9.54,7.37,16.64,17.11,16.58,8.62-.05,15.79-7.86,15.7-17.09-.1-9.23-7.16-16.18-16.43-16.16Z"/>
          <path class="cls-7" d="m1504.41,744.59c-6.36-.07-11.07,4.49-11.21,10.86-.15,6.52,4.63,11.6,10.96,11.65,6.41.05,11.48-4.87,11.55-11.21.07-6.53-4.63-11.23-11.3-11.31Z"/>
          <path class="cls-8" d="m1431.9,744.59c-6.49,0-11.36,4.83-11.34,11.26.02,6.01,5.07,11.15,11.06,11.26,6.55.12,11.55-4.98,11.45-11.68-.09-6.36-4.71-10.84-11.17-10.84Z"/>
        </g>
      </g>
    </g>
  </g>
</svg>